<svg viewBox="0 0 640 400" data-background-color="#c6c1ea" preserveAspectRatio="xMidYMid meet" height="400" width="640" xmlns="http://www.w3.org/2000/svg" xmlns:xlink="http://www.w3.org/1999/xlink"><rect width="640" height="400" x="0" y="0" opacity="1" fill="#C6C1EA" data-fill-palette-color="background" id="background"></rect><g id="tight-bounds" transform="matrix(1,0,0,1,122.24000000000001,118.75362192509111)"><svg viewBox="0 0 395.52 162.49275614981778" height="162.49275614981778" width="395.52"><g><svg viewBox="0 0 395.52 162.49275614981778" height="162.49275614981778" width="395.52"><g><svg viewBox="0 0 395.52 162.49275614981778" height="162.49275614981778" width="395.52"><g id="textblocktransform"><svg viewBox="0 0 395.52 162.49275614981778" height="162.49275614981778" width="395.52" id="textblock"><g><svg viewBox="0 0 395.52 115.908959554575" height="115.908959554575" width="395.52"><path d="M394.594 24.86C392.735 12.829 387.435 9.484 387.435 9.484 371.165-2.908 350.86-0.237 332.619 1.544 300.414 1.616 268.339 4.263 236.208 5.682 168.767 5.899 100.749 2.338 33.643 11.12 27.339 13.816-6.54 11.65 1.121 26.4 3.129 32.536 10.456 39.346 10.232 44.977 11.236 45.963 12.631 43.701 13.226 45.121 15.309 48.947 18.711 47.142 21.501 49.404 17.614 55.444 20.403 60.473 23.062 65.743 18.377 67.114 12.371 66.465 9.675 71.012 9.396 74.309 7.89 73.683 6.235 73.539 5.026 73.443 2.59 73.804 2.999 74.838 4.394 78.376-1.594 80.421 2.162 83.886-0.422 87.64 3.948 90.888 3.353 94.955 3.278 95.773 3.687 96.471 4.338 96.663 7.22 97.698 3.018 99.719 3.464 101.909 33.029 116.876 65.104 106.529 95.394 113.411 103.259 108.598 97.346 115.119 100.489 114.109 102.943 112.929 104.728 117.814 107.499 115.047 107.927 114.253 107.276 112.376 108.8 112.737 109.6 112.929 110.307 112.881 110.418 111.774 110.586 110.114 109.117 111.149 108.726 110.283 112.947 105.903 111.906 116.322 115.866 115.889 115.68 114.614 114.528 112.785 116.889 113.026 119.232 111.197 119.306 109.681 121.389 113.796 121.463 114.686 121.835 115.312 122.43 115.745 128.938 111.269 135.409 117.333 142.233 115.312 146.417 113.098 150.433 116.515 154.672 115.673 156.16 114.999 157.666 113.796 159.098 115.817 176.632 116.25 195.319 114.445 211.943 115.889 256.364 113.194 303.835 116.996 350.674 113.435 361.719 112.063 373.192 110.114 383.958 108.55 383.958 108.55 392.679 104.267 392.679 85.017S394.538 68.173 394.817 52.845C395.096 37.517 396.398 36.892 394.538 24.86Z" opacity="1" fill="#621E72" data-fill-palette-color="tertiary"></path><g transform="matrix(1,0,0,1,55.76832,26.068561146666667)"><svg width="283.98335999999995" viewBox="1.2300000190734863 -31.950000762939453 184.010009765625 41.33000183105469" height="63.77183726124167" data-palette-color="#c6c1ea"><path d="M27.28-31.95L17.57 0 10.95 0 1.23-31.95 5.58-31.95 13.95-3.15 14.55-3.15 22.95-31.95 27.28-31.95ZM42.05 0.55L42.05 0.55Q36.47 0.55 33.65-2.18 30.82-4.9 30.82-9.98L30.82-9.98 30.82-14.33Q30.82-19.48 33.45-22.26 36.07-25.05 41.12-25.05L41.12-25.05Q44.52-25.05 46.8-23.79 49.07-22.53 50.22-20.2 51.37-17.88 51.37-14.65L51.37-14.65 51.37-13.75Q51.37-12.95 51.31-12.15 51.25-11.35 51.15-10.58L51.15-10.58 47.42-10.58Q47.47-11.78 47.48-12.85 47.5-13.93 47.5-14.83L47.5-14.83Q47.5-17.05 46.78-18.59 46.07-20.13 44.66-20.94 43.25-21.75 41.12-21.75L41.12-21.75Q37.97-21.75 36.4-19.93 34.82-18.1 34.82-14.7L34.82-14.7 34.82-12.38 34.85-11.88 34.85-9.55Q34.85-8.03 35.3-6.8 35.75-5.58 36.71-4.69 37.67-3.8 39.16-3.34 40.65-2.88 42.7-2.88L42.7-2.88Q45.07-2.88 47.12-3.5 49.17-4.13 50.97-5.2L50.97-5.2 50.6-1.7Q48.97-0.68 46.82-0.06 44.67 0.55 42.05 0.55ZM50.3-13.63L50.3-10.58 32.95-10.58 32.95-13.63 50.3-13.63ZM67.02 0.55L67.02 0.55Q61.45 0.55 58.62-2.18 55.8-4.9 55.8-9.98L55.8-9.98 55.8-14.33Q55.8-19.48 58.42-22.26 61.05-25.05 66.09-25.05L66.09-25.05Q69.5-25.05 71.77-23.79 74.05-22.53 75.19-20.2 76.34-17.88 76.34-14.65L76.34-14.65 76.34-13.75Q76.34-12.95 76.28-12.15 76.22-11.35 76.12-10.58L76.12-10.58 72.39-10.58Q72.44-11.78 72.46-12.85 72.47-13.93 72.47-14.83L72.47-14.83Q72.47-17.05 71.76-18.59 71.05-20.13 69.63-20.94 68.22-21.75 66.09-21.75L66.09-21.75Q62.95-21.75 61.37-19.93 59.8-18.1 59.8-14.7L59.8-14.7 59.8-12.38 59.82-11.88 59.82-9.55Q59.82-8.03 60.27-6.8 60.72-5.58 61.68-4.69 62.64-3.8 64.13-3.34 65.62-2.88 67.67-2.88L67.67-2.88Q70.05-2.88 72.09-3.5 74.14-4.13 75.94-5.2L75.94-5.2 75.57-1.7Q73.94-0.68 71.8-0.06 69.64 0.55 67.02 0.55ZM75.27-13.63L75.27-10.58 57.92-10.58 57.92-13.63 75.27-13.63ZM91.24-7.3L91.24-7.3Q86.27-7.3 83.6-9.47 80.94-11.65 80.94-15.7L80.94-15.7 80.94-16.32Q80.94-18.85 81.98-20.73 83.02-22.6 85.29-23.66 87.57-24.73 91.24-24.83L91.24-24.83 103.69-25.23 103.69-22.03 96.34-22.28 96.32-22.1Q98.04-21.75 99.14-20.9 100.24-20.05 100.78-18.78 101.32-17.5 101.32-15.8L101.32-15.8 101.32-15.25Q101.32-11.38 98.77-9.34 96.22-7.3 91.24-7.3ZM91.07 6.15L91.07 6.15 91.64 6.15Q93.89 6.15 95.5 5.81 97.12 5.48 97.99 4.75 98.87 4.03 98.87 2.83L98.87 2.83 98.87 2.73Q98.87 1.33 97.85 0.59 96.84-0.15 94.39-0.38L94.39-0.38 87.49-1 88.64-1.05Q87.24-0.85 86.18-0.4 85.12 0.05 84.52 0.79 83.92 1.53 83.92 2.63L83.92 2.63 83.92 2.68Q83.92 3.95 84.79 4.73 85.67 5.5 87.27 5.83 88.87 6.15 91.07 6.15ZM91.57 9.38L91.57 9.38 90.84 9.38Q87.54 9.38 85.16 8.81 82.77 8.25 81.45 6.99 80.14 5.73 80.14 3.6L80.14 3.6 80.14 3.5Q80.14 2 80.85 1 81.57 0 82.78-0.58 83.99-1.15 85.49-1.35L85.49-1.35 85.47-1.5Q83.42-1.85 82.44-2.71 81.47-3.58 81.47-4.95L81.47-4.95 81.47-4.98Q81.47-5.93 81.91-6.6 82.34-7.28 83.23-7.68 84.12-8.08 85.49-8.18L85.49-8.18 85.49-8.68 90.14-7.5 88.24-7.55Q86.54-7.53 85.89-7.14 85.24-6.75 85.24-5.98L85.24-5.98 85.24-5.95Q85.24-5.13 86.17-4.7 87.09-4.28 89.32-4.03L89.32-4.03 95.24-3.43Q99.12-3.03 100.89-1.56 102.67-0.1 102.67 2.75L102.67 2.75 102.67 2.88Q102.67 5.15 101.32 6.6 99.97 8.05 97.49 8.71 95.02 9.38 91.57 9.38ZM91.19-10.3L91.19-10.3Q93.29-10.3 94.68-10.91 96.07-11.53 96.78-12.76 97.49-14 97.49-15.8L97.49-15.8 97.49-16.4Q97.49-18.15 96.8-19.38 96.12-20.6 94.74-21.24 93.37-21.88 91.29-21.88L91.29-21.88 91.14-21.88Q88.89-21.88 87.48-21.19 86.07-20.5 85.43-19.26 84.79-18.03 84.79-16.38L84.79-16.38 84.79-15.8Q84.79-14 85.5-12.78 86.22-11.55 87.64-10.93 89.07-10.3 91.19-10.3ZM111.22-14.93L111.22-14.93 110.29-18.05 111.29-18.1Q112.09-21.2 114.04-22.99 115.99-24.78 119.22-24.78L119.22-24.78Q120.02-24.78 120.65-24.65 121.29-24.53 121.79-24.35L121.79-24.35 122.04-20.43Q121.41-20.63 120.65-20.75 119.89-20.88 118.97-20.88L118.97-20.88Q116.22-20.88 114.18-19.35 112.14-17.82 111.22-14.93ZM111.41-16.9L111.41 0 107.36 0 107.36-24.4 111.31-24.4 111.11-17.2 111.41-16.9ZM144.51-15.8L144.51 0 140.49 0 140.66-5.93 140.51-6.55 140.51-14.33 140.54-15.75Q140.54-18.73 139.03-20.15 137.51-21.58 134.24-21.58L134.24-21.58Q131.61-21.58 129.43-20.83 127.24-20.08 125.54-19.07L125.54-19.07 125.91-22.53Q126.86-23.1 128.18-23.66 129.49-24.23 131.18-24.6 132.86-24.98 134.89-24.98L134.89-24.98Q137.51-24.98 139.35-24.34 141.19-23.7 142.33-22.5 143.46-21.3 143.99-19.6 144.51-17.9 144.51-15.8L144.51-15.8ZM132.09 0.53L132.09 0.53Q128.46 0.53 126.53-1.24 124.59-3 124.59-6.28L124.59-6.28 124.59-7Q124.59-10.38 126.68-12.04 128.76-13.7 133.31-14.35L133.31-14.35 141.04-15.45 141.26-12.5 133.81-11.43Q131.01-11.03 129.81-10.06 128.61-9.1 128.61-7.23L128.61-7.23 128.61-6.83Q128.61-4.9 129.8-3.88 130.99-2.85 133.36-2.85L133.36-2.85Q135.46-2.85 136.96-3.58 138.46-4.3 139.39-5.53 140.31-6.75 140.64-8.25L140.64-8.25 141.26-5.5 140.49-5.5Q140.14-3.9 139.18-2.53 138.21-1.15 136.49-0.31 134.76 0.53 132.09 0.53ZM185.24-15.73L185.24 0 181.19 0 181.19-15.28Q181.19-17.2 180.7-18.61 180.21-20.03 179.1-20.8 177.99-21.58 176.11-21.58L176.11-21.58Q174.34-21.58 173.04-20.85 171.74-20.13 170.94-18.91 170.14-17.7 169.81-16.15L169.81-16.15 169.19-19.03 169.69-19.03Q170.09-20.6 171.04-21.95 171.99-23.3 173.61-24.13 175.24-24.95 177.64-24.95L177.64-24.95Q180.36-24.95 182.02-23.88 183.69-22.8 184.46-20.74 185.24-18.68 185.24-15.73L185.24-15.73ZM154.76-18.3L154.76 0 150.71 0 150.71-24.4 154.76-24.4 154.59-18.55 154.76-18.3ZM169.99-15.85L169.99 0 165.96 0 165.96-15.28Q165.96-17.2 165.47-18.61 164.99-20.03 163.89-20.8 162.79-21.58 160.91-21.58L160.91-21.58Q159.11-21.58 157.81-20.85 156.51-20.13 155.71-18.89 154.91-17.65 154.59-16.07L154.59-16.07 153.84-18.95 154.74-18.95Q155.11-20.6 156.04-21.96 156.96-23.33 158.55-24.14 160.14-24.95 162.41-24.95L162.41-24.95Q165.79-24.95 167.55-23.2 169.31-21.45 169.76-18.1L169.76-18.1Q169.89-17.6 169.94-17.01 169.99-16.43 169.99-15.85L169.99-15.85Z" opacity="1" transform="matrix(1,0,0,1,0,0)" fill="#C6C1EA" class="wordmark-text-0" data-fill-palette-color="quaternary" id="text-0"></path></svg></g></svg></g><g transform="matrix(1,0,0,1,135.7620170696891,130.9639598078599)"><svg viewBox="0 0 123.99596586062177 31.528796341957886" height="31.528796341957886" width="123.99596586062177"><g transform="matrix(1,0,0,1,0,0)"><svg width="123.99596586062177" viewBox="2 -36.25 143.33999633789062 36.45000076293945" height="31.528796341957886" data-palette-color="#621e72"><path d="M9.1 0.2L9.1 0.2Q2.45 0.2 2.05-5.05L2.05-5.05Q2-5.4 2-5.75L2-5.75Q2-9.95 7.05-11.35L7.05-11.35Q9.85-12.05 17.85-12.95L17.85-12.95 17.85-16.8Q17.85-22.25 12.15-22.25L12.15-22.25Q8.05-22.2 3.45-20.35L3.45-20.35 2.6-22.5 3.1-22.7Q7-24.4 9.05-24.75 11.1-25.1 12.05-25.13 13-25.15 13.88-25.1 14.75-25.05 16.15-24.65 17.55-24.25 18.57-23.53 19.6-22.8 20.35-21.35 21.1-19.9 21.1-17.9L21.1-17.9 21.1-2.5 24.95-2.5 24.95 0 18.35 0 17.85-1.9Q13.35 0.2 9.1 0.2ZM10-2.1L10-2.1Q13.8-2.1 17.85-3.8L17.85-3.8 17.85-10.95Q10.35-10.7 8.15-9.95L8.15-9.95Q6.45-9.5 5.75-8.33 5.05-7.15 5.05-6.45 5.05-5.75 5.05-5.5L5.05-5.5Q5.2-3.7 6.6-2.9 8-2.1 10-2.1ZM44.3-22.5L41.5-22.5 41.5-25 50.7-25 50.7-22.5 47.75-22.5 38.7 0 35.7 0 27.35-22.5 23.95-22.5 23.95-25 34.5-25 34.5-22.5 31-22.5 37.35-3.85 44.3-22.5ZM59.75 0.2L59.75 0.2Q53.1 0.2 52.7-5.05L52.7-5.05Q52.65-5.4 52.65-5.75L52.65-5.75Q52.65-9.95 57.7-11.35L57.7-11.35Q60.5-12.05 68.5-12.95L68.5-12.95 68.5-16.8Q68.5-22.25 62.8-22.25L62.8-22.25Q58.7-22.2 54.1-20.35L54.1-20.35 53.25-22.5 53.75-22.7Q57.65-24.4 59.7-24.75 61.75-25.1 62.7-25.13 63.65-25.15 64.52-25.1 65.4-25.05 66.8-24.65 68.2-24.25 69.22-23.53 70.25-22.8 71-21.35 71.75-19.9 71.75-17.9L71.75-17.9 71.75-2.5 75.59-2.5 75.59 0 69 0 68.5-1.9Q64 0.2 59.75 0.2ZM60.65-2.1L60.65-2.1Q64.45-2.1 68.5-3.8L68.5-3.8 68.5-10.95Q61-10.7 58.8-9.95L58.8-9.95Q57.1-9.5 56.4-8.33 55.7-7.15 55.7-6.45 55.7-5.75 55.7-5.5L55.7-5.5Q55.85-3.7 57.25-2.9 58.65-2.1 60.65-2.1ZM80.94-22.5L77.59-22.5 77.59-25 84.19-25 84.19-22.2Q88.29-25 92.04-25.15L92.04-25.15Q95.69-25.15 97.59-23.7L97.59-23.7Q98.44-23.05 99.12-21.68 99.79-20.3 99.79-18.4L99.79-18.4 99.79-2.5 103.64-2.5 103.64 0 93.54 0 93.54-2.5 96.54-2.5 96.54-17.15Q96.54-22 90.84-22L90.84-22Q87.74-21.9 84.19-19.95L84.19-19.95 84.19-2.5 87.94-2.5 87.94 0 77.84 0 77.84-2.5 80.94-2.5 80.94-22.5ZM110.39-22.5L107.04-22.5 107.04-25 113.64-25 113.64-2.5 117.39-2.5 117.39 0 107.29 0 107.29-2.5 110.39-2.5 110.39-22.5ZM111.94-31.7Q110.94-31.7 110.39-32.33 109.84-32.95 109.84-33.98 109.84-35 110.42-35.63 110.99-36.25 111.99-36.25 112.99-36.25 113.62-35.63 114.24-35 114.24-33.93 114.24-32.85 113.59-32.27 112.94-31.7 111.94-31.7ZM122.64-22.5L119.29-22.5 119.29-25 125.89-25 125.89-22.2Q129.99-25 133.74-25.15L133.74-25.15Q137.39-25.15 139.29-23.7L139.29-23.7Q140.14-23.05 140.81-21.68 141.49-20.3 141.49-18.4L141.49-18.4 141.49-2.5 145.34-2.5 145.34 0 135.24 0 135.24-2.5 138.24-2.5 138.24-17.15Q138.24-22 132.54-22L132.54-22Q129.44-21.9 125.89-19.95L125.89-19.95 125.89-2.5 129.64-2.5 129.64 0 119.54 0 119.54-2.5 122.64-2.5 122.64-22.5Z" opacity="1" transform="matrix(1,0,0,1,0,0)" fill="#621E72" class="slogan-text-1" data-fill-palette-color="secondary" id="text-1"></path></svg></g></svg></g></svg></g></svg></g><g></g></svg></g><defs></defs></svg><rect width="395.52" height="162.49275614981778" fill="none" stroke="none" visibility="hidden"></rect></g></svg>